<?xml version="1.0" standalone="no"?>
<!DOCTYPE svg PUBLIC "-//W3C//DTD SVG 20010904//EN"
 "http://www.w3.org/TR/2001/REC-SVG-20010904/DTD/svg10.dtd">
<svg version="1.0" xmlns="http://www.w3.org/2000/svg"
 width="174.000000pt" height="155.000000pt" viewBox="0 0 174.000000 155.000000"
 preserveAspectRatio="xMidYMid meet">

<g transform="translate(0.000000,155.000000) scale(0.100000,-0.100000)"
fill="#000000" stroke="none">
<path d="M730 865 l0 -305 180 0 180 0 0 50 0 50 -125 0 -125 0 0 85 0 85 120
0 120 0 0 50 0 50 -120 0 -120 0 0 70 0 70 125 0 125 0 0 50 0 50 -180 0 -180
0 0 -305z"/>
<path d="M640 415 l0 -45 265 0 265 0 0 45 0 45 -265 0 -265 0 0 -45z"/>
</g>
</svg>
